HIERARCHY
ROOT pelvis
{
	OFFSET 0.00 0.00 0.00
	CHANNELS 6 Xposition Yposition Zposition Xrotation Yrotation Zrotation
	JOINT lfemur
	{
		OFFSET 0.00000 4.04436 0.00000
		CHANNELS 3 Xrotation Yrotation Zrotation
		JOINT ltibia
		{
			OFFSET 0.00000 0.00000 -16.29375
			CHANNELS 3 Xrotation Yrotation Zrotation
			JOINT lfoot
			{
				OFFSET 0.00000 0.00000 -15.07135
				CHANNELS 3 Xrotation Yrotation Zrotation
				JOINT ltoes
				{
					OFFSET 4.08523 0.00000 0.00000
					CHANNELS 3 Xrotation Yrotation Zrotation
				}
			}
		}
	}
	JOINT rfemur
	{
		OFFSET 0.00000 -4.04436 0.00000
		CHANNELS 3 Xrotation Yrotation Zrotation
		JOINT rtibia
		{
			OFFSET 0.00000 0.00000 -16.29375
			CHANNELS 3 Xrotation Yrotation Zrotation
			JOINT rfoot
			{
				OFFSET 0.00000 0.00000 -15.07135
				CHANNELS 3 Xrotation Yrotation Zrotation
				JOINT rtoes
				{
					OFFSET 4.08523 0.00000 0.00000
					CHANNELS 3 Xrotation Yrotation Zrotation
				}
			}
		}
	}
	JOINT thorax
	{
		OFFSET -1.96850 0.00000 3.38723
		CHANNELS 6 Xposition Yposition Zposition Xrotation Yrotation Zrotation
		JOINT head
		{
			OFFSET 0.00000 0.00000 16.93583
			CHANNELS 6 Xposition Yposition Zposition Xrotation Yrotation Zrotation
		}
		JOINT lclavicle
		{
			OFFSET 0.00000 0.00000 14.46426
			CHANNELS 3 Xrotation Yrotation Zrotation
			JOINT lhumerus
			{
				OFFSET 0.00000 6.07503 0.73740
				CHANNELS 3 Xrotation Yrotation Zrotation
				JOINT lradius
				{
					OFFSET 0.00000 0.00000 -10.44175
					CHANNELS 3 Xrotation Yrotation Zrotation
					JOINT lhand
					{
						OFFSET 0.00000 0.00000 -9.67100
						CHANNELS 3 Xrotation Yrotation Zrotation
					}
				}
			}
		}
		JOINT rclavicle
		{
			OFFSET 0.00000 0.00000 14.46426
			CHANNELS 3 Xrotation Yrotation Zrotation
			JOINT rhumerus
			{
				OFFSET 0.00000 -6.07503 0.73740
				CHANNELS 3 Xrotation Yrotation Zrotation
				JOINT rradius
				{
					OFFSET 0.00000 0.00000 -10.44175
					CHANNELS 3 Xrotation Yrotation Zrotation
					JOINT rhand
					{
						OFFSET 0.00000 0.00000 -9.67100
						CHANNELS 3 Xrotation Yrotation Zrotation
					}
				}
			}
		}
	}
}
MOTION
Frames: 17
Frame Time: 0.008333
 39.9249 11.8708 33.1578 0.0025 -0.3452 -90.2904 -1.6516 5.0065 7.8876 0.0000 2.3991 -0.0000 0.0000 15.5507 0.7083 0.0000 -20.7456 -0.0000 -1.7856 7.9048 2.7210 0.0000 -2.9690 0.0000 0.0000 17.4049 -7.4944 0.0000 -24.9388 -0.0000 40.0671 14.8092 36.5037 1.2932 4.4877 6.3604 39.3997 13.0658 53.3550 -7.8356 -15.5154 8.2571 -17.7806 0.0000 -8.4258 21.5831 -0.8640 8.6327 0.0000 -25.6577 -57.9319 0.8523 -2.0912 0.0000 15.7291 -0.0000 9.3396 -19.9538 5.3074 -29.2560 -0.0000 -35.6801 55.0861 -0.2625 -10.3680 -0.0000
 39.9309 11.8807 33.1592 0.0013 -0.3380 -90.2765 -1.6515 4.9923 7.8786 0.0000 2.3912 -0.0000 0.0000 15.5411 0.6869 0.0000 -20.5640 -0.0000 -1.7860 7.8903 2.7492 0.0000 -2.9731 0.0000 0.0000 17.4669 -7.5303 0.0000 -25.0258 -0.0000 40.0696 14.8257 36.5061 1.2970 4.5516 6.3829 39.4039 13.0583 53.3543 -7.8771 -15.5962 8.1889 -17.7999 0.0000 -8.4974 21.6194 -0.8687 8.8501 0.0000 -25.5929 -58.2925 0.5252 -2.1585 0.0000 15.7261 0.0000 9.3968 -19.9203 5.3022 -29.3286 -0.0000 -35.7551 55.0715 -0.2110 -10.4302 -0.0000
 39.9336 11.8841 33.1584 0.0030 -0.3334 -90.2884 -1.6527 4.9900 7.8928 -0.0000 2.3854 0.0000 0.0000 15.5119 0.6871 0.0000 -20.5208 0.0000 -1.7895 7.8876 2.7434 0.0000 -2.9810 0.0000 0.0000 17.4010 -7.4967 0.0000 -24.8513 -0.0000 40.0742 14.8302 36.5072 1.2933 4.5705 6.3851 39.4115 13.0567 53.3556 -7.8800 -15.6132 8.1505 -17.7957 0.0000 -8.4971 21.6300 -0.8442 8.9032 0.0000 -25.5250 -58.3871 0.6514 -2.2301 -0.0000 15.7341 -0.0000 9.4075 -19.9066 5.2793 -29.3049 -0.0000 -35.7903 55.0734 -0.1517 -10.4572 0.0000
 39.9368 11.8902 33.1590 0.0006 -0.3302 -90.2892 -1.6547 4.9821 7.8897 0.0000 2.3829 -0.0000 -0.0000 15.5239 0.6803 0.0000 -20.5142 0.0000 -1.7900 7.8718 2.7980 0.0000 -2.9690 -0.0000 0.0000 17.4347 -7.5544 0.0000 -24.9088 0.0000 40.0768 14.8373 36.5076 1.2877 4.6065 6.3856 39.4146 13.0540 53.3562 -7.8912 -15.6385 8.1514 -17.8103 0.0000 -8.5065 21.6645 -0.8303 9.0736 0.0000 -25.5049 -58.6418 0.3163 -2.2662 -0.0000 15.7321 -0.0000 9.4153 -19.8814 5.2572 -29.2485 -0.0000 -35.8177 55.0306 -0.1585 -10.4034 0.0000
 39.9401 11.8954 33.1585 -0.0018 -0.3270 -90.2977 -1.6589 4.9726 7.8770 -0.0000 2.3915 0.0000 0.0000 15.5162 0.7060 0.0000 -20.5342 -0.0000 -1.7938 7.8588 2.8209 0.0000 -2.9543 0.0000 0.0000 17.4115 -7.5695 0.0000 -24.8239 0.0000 40.0814 14.8425 36.5089 1.2867 4.6378 6.3904 39.4209 13.0508 53.3556 -7.8953 -15.6646 8.1385 -17.8174 0.0000 -8.5095 21.6830 -0.8172 9.1888 0.0000 -25.4471 -58.8213 0.2606 -2.2665 -0.0000 15.7324 -0.0000 9.4190 -19.8697 5.2332 -29.2003 0.0000 -35.8339 55.0101 -0.1651 -10.4143 -0.0000
 39.9430 11.9001 33.1589 -0.0046 -0.3258 -90.2950 -1.6613 4.9653 7.8763 -0.0000 2.3955 0.0000 0.0000 15.5143 0.6985 0.0000 -20.4930 -0.0000 -1.7955 7.8445 2.8448 0.0000 -2.9371 -0.0000 0.0000 17.4199 -7.5934 0.0000 -24.8747 -0.0000 40.0853 14.8460 36.5096 1.2826 4.6644 6.3982 39.4262 13.0477 53.3562 -7.8971 -15.6879 8.1355 -17.8283 0.0000 -8.5024 21.7040 -0.8049 9.3001 0.0000 -25.4059 -59.0221 0.1741 -2.3577 0.0000 15.7338 -0.0000 9.4135 -19.8509 5.2209 -29.1551 -0.0000 -35.8498 54.9964 -0.1538 -10.4368 0.0000
 39.9455 11.9051 33.1585 -0.0083 -0.3251 -90.2959 -1.6648 4.9561 7.8649 -0.0000 2.4044 0.0000 0.0000 15.5219 0.7114 0.0000 -20.5425 0.0000 -1.7988 7.8304 2.8662 0.0000 -2.9171 0.0000 0.0000 17.3975 -7.6119 0.0000 -24.8383 -0.0000 40.0892 14.8493 36.5104 1.2793 4.6895 6.4023 39.4317 13.0448 53.3565 -7.8966 -15.7009 8.1454 -17.8348 0.0000 -8.4954 21.7241 -0.7937 9.3947 0.0000 -25.3516 -59.1625 0.1073 -2.3980 -0.0000 15.7342 -0.0000 9.4108 -19.8351 5.2078 -29.1003 0.0000 -35.8573 54.9795 -0.1453 -10.4157 -0.0000
 39.9481 11.9101 33.1590 -0.0127 -0.3255 -90.2874 -1.6685 4.9465 7.8509 -0.0000 2.4148 0.0000 0.0000 15.5068 0.7117 0.0000 -20.4732 0.0000 -1.8010 7.8141 2.8870 0.0000 -2.8902 -0.0000 0.0000 17.4060 -7.6496 0.0000 -24.8777 -0.0000 40.0926 14.8528 36.5111 1.2739 4.7166 6.4087 39.4376 13.0415 53.3566 -7.8940 -15.7196 8.1444 -17.8422 0.0000 -8.4865 21.7410 -0.7876 9.4737 0.0000 -25.3032 -59.2572 0.1110 -2.4063 0.0000 15.7363 -0.0000 9.4067 -19.8216 5.2017 -29.0527 -0.0000 -35.8602 54.9619 -0.1528 -10.4462 0.0000
 39.9504 11.9151 33.1587 -0.0174 -0.3260 -90.2794 -1.6725 4.9341 7.8288 -0.0000 2.4293 -0.0000 0.0000 15.5263 0.7282 0.0000 -20.5565 -0.0000 -1.8041 7.7986 2.8938 0.0000 -2.8627 0.0000 -0.0000 17.3794 -7.6645 0.0000 -24.8398 -0.0000 40.0951 14.8569 36.5120 1.2668 4.7459 6.4125 39.4428 13.0377 53.3569 -7.8915 -15.7417 8.1569 -17.8471 0.0000 -8.4776 21.7622 -0.7825 9.5553 0.0000 -25.2573 -59.3527 0.0962 -2.4407 0.0000 15.7400 -0.0000 9.4053 -19.8055 5.1962 -29.0045 0.0000 -35.8672 54.9482 -0.1447 -10.4351 -0.0000
 39.9531 11.9197 33.1594 -0.0220 -0.3274 -90.2616 -1.6766 4.9224 7.8068 0.0000 2.4447 -0.0000 -0.0000 15.4891 0.7270 0.0000 -20.4171 -0.0000 -1.8059 7.7818 2.9022 0.0000 -2.8313 -0.0000 0.0000 17.3901 -7.7017 0.0000 -24.8884 0.0000 40.0973 14.8622 36.5129 1.2581 4.7771 6.4172 39.4485 13.0343 53.3573 -7.8872 -15.7621 8.1598 -17.8482 0.0000 -8.4739 21.7784 -0.7848 9.6021 0.0000 -25.2070 -59.3671 0.1730 -2.4129 0.0000 15.7469 -0.0000 9.4093 -19.7970 5.1941 -28.9685 -0.0000 -35.8604 54.9248 -0.1500 -10.4652 -0.0000
 39.9559 11.9246 33.1592 -0.0267 -0.3285 -90.2455 -1.6810 4.9057 7.7738 -0.0000 2.4637 -0.0000 0.0000 15.5361 0.7507 0.0000 -20.5874 -0.0000 -1.8086 7.7662 2.8961 0.0000 -2.8011 -0.0000 0.0000 17.3563 -7.7098 0.0000 -24.8321 0.0000 40.0986 14.8681 36.5142 1.2466 4.8135 6.4211 39.4536 13.0295 53.3579 -7.8818 -15.7977 8.1735 -17.8494 0.0000 -8.4682 21.7972 -0.7873 9.6638 0.0000 -25.1690 -59.3963 0.2333 -2.4043 0.0000 15.7548 0.0000 9.4135 -19.7828 5.1936 -28.9321 -0.0000 -35.8639 54.9074 -0.1480 -10.4689 -0.0000
 39.9594 11.9292 33.1604 -0.0320 -0.3301 -90.2220 -1.6864 4.8910 7.7418 -0.0000 2.4866 0.0000 0.0000 15.4644 0.7567 0.0000 -20.3284 0.0000 -1.8107 7.7488 2.8829 0.0000 -2.7646 -0.0000 0.0000 17.3707 -7.7395 0.0000 -24.8581 0.0000 40.0997 14.8746 36.5152 1.2340 4.8493 6.4239 39.4597 13.0248 53.3588 -7.8755 -15.8237 8.1790 -17.8493 0.0000 -8.4646 21.8204 -0.7972 9.7229 0.0000 -25.1339 -59.4378 0.1652 -2.3600 0.0000 15.7633 0.0000 9.4208 -19.7757 5.1940 -28.9041 -0.0000 -35.8568 54.9041 -0.1432 -10.4301 -0.0000
 39.9628 11.9337 33.1602 -0.0365 -0.3310 -90.2004 -1.6909 4.8738 7.7092 0.0000 2.5049 -0.0000 0.0000 15.5407 0.7723 0.0000 -20.5928 0.0000 -1.8137 7.7346 2.8686 0.0000 -2.7347 0.0000 0.0000 17.3380 -7.7385 0.0000 -24.8111 -0.0000 40.1007 14.8803 36.5169 1.2217 4.8846 6.4288 39.4645 13.0198 53.3597 -7.8697 -15.8584 8.2027 -17.8491 0.0000 -8.4593 21.8414 -0.8049 9.7816 0.0000 -25.1012 -59.4787 0.2195 -2.3633 -0.0000 15.7702 -0.0000 9.4275 -19.7606 5.1996 -28.8783 -0.0000 -35.8459 54.9016 -0.1478 -10.4270 0.0000
 39.9665 11.9378 33.1613 -0.0408 -0.3318 -90.1737 -1.6951 4.8611 7.6648 -0.0000 2.5244 0.0000 0.0000 15.4593 0.7895 0.0000 -20.3030 0.0000 -1.8155 7.7202 2.8593 0.0000 -2.7045 0.0000 0.0000 17.3461 -7.7616 0.0000 -24.8401 0.0000 40.1016 14.8859 36.5180 1.2101 4.9160 6.4344 39.4697 13.0154 53.3609 -7.8617 -15.8852 8.2200 -17.8511 0.0000 -8.4549 21.8658 -0.8143 9.8380 0.0000 -25.0736 -59.5216 0.2236 -2.3428 0.0000 15.7759 -0.0000 9.4329 -19.7444 5.2089 -28.8659 -0.0000 -35.8325 54.9140 -0.1386 -10.4289 -0.0000
 39.9701 11.9418 33.1613 -0.0449 -0.3317 -90.1474 -1.6982 4.8454 7.6249 0.0000 2.5385 -0.0000 0.0000 15.5437 0.8109 0.0000 -20.5831 -0.0000 -1.8176 7.7088 2.8432 0.0000 -2.6778 0.0000 0.0000 17.3255 -7.7629 0.0000 -24.8142 0.0000 40.1024 14.8909 36.5195 1.1992 4.9463 6.4427 39.4745 13.0111 53.3618 -7.8552 -15.9107 8.2410 -17.8531 0.0000 -8.4506 21.8896 -0.8226 9.8862 0.0000 -25.0473 -59.5493 0.2639 -2.3353 -0.0000 15.7787 -0.0000 9.4378 -19.7235 5.2215 -28.8595 -0.0000 -35.8147 54.9367 -0.1341 -10.4313 0.0000
 39.9737 11.9456 33.1621 -0.0483 -0.3317 -90.1159 -1.7012 4.8335 7.5769 0.0000 2.5545 -0.0000 0.0000 15.4724 0.8293 0.0000 -20.3269 -0.0000 -1.8185 7.6971 2.8270 0.0000 -2.6509 0.0000 0.0000 17.3304 -7.7779 0.0000 -24.8389 0.0000 40.1030 14.8959 36.5204 1.1882 4.9740 6.4508 39.4798 13.0074 53.3629 -7.8457 -15.9294 8.2579 -17.8573 0.0000 -8.4470 21.9165 -0.8324 9.9281 0.0000 -25.0256 -59.5674 0.2892 -2.3201 -0.0000 15.7808 -0.0000 9.4396 -19.7016 5.2356 -28.8629 -0.0000 -35.7965 54.9686 -0.1138 -10.4298 0.0000
 39.9769 11.9483 33.1620 -0.0511 -0.3311 -90.0874 -1.7028 4.8213 7.5453 -0.0000 2.5632 -0.0000 0.0000 15.5368 0.8398 0.0000 -20.5631 -0.0000 -1.8192 7.6893 2.8103 0.0000 -2.6311 -0.0000 0.0000 17.3218 -7.7795 0.0000 -24.8420 0.0000 40.1041 14.8996 36.5214 1.1786 4.9960 6.4619 39.4849 13.0045 53.3640 -7.8309 -15.9435 8.2779 -17.8613 0.0000 -8.4392 21.9376 -0.8362 9.9589 0.0000 -25.0131 -59.5833 0.3405 -2.3109 0.0000 15.7832 -0.0000 9.4380 -19.6788 5.2517 -28.8731 -0.0000 -35.7683 54.9936 -0.1016 -10.4997 0.0000
